<svg style="fill: grey;" height="448pt" viewBox="0 0 448 448" width="448pt" xmlns="http://www.w3.org/2000/svg"><path d="m316.6875 80 80-80h-345.375l80 80zm0 0"/><path d="m131.3125 368-80 80h345.375l-80-80zm0 0"/><path d="m448 384.734375v-321.46875l-88 60.925781v199.617188zm0 0"/><path d="m88 323.808594v-199.617188l-88-60.925781v321.46875zm0 0"/><path d="m312 320v-192h-176v192zm-29.679688-181.679688c1.890626-1.875 4.589844-2.683593 7.199219-2.160156.53125.074219 1.050781.238282 1.527344.480469.492187.160156.953125.402344 1.359375.71875.460938.277344.886719.597656 1.28125.960937 1.460938 1.535157 2.285156 3.5625 2.3125 5.679688.019531 2.128906-.816406 4.171875-2.320312 5.679688-.777344.703124-1.671876 1.273437-2.640626 1.679687-1.9375.851563-4.140624.851563-6.078124 0-.96875-.40625-1.863282-.972656-2.640626-1.679687-1.503906-1.503907-2.339843-3.550782-2.320312-5.679688.027344-2.117188.855469-4.148438 2.320312-5.679688zm0 32c1.890626-1.875 4.589844-2.683593 7.199219-2.160156.53125.074219 1.050781.238282 1.527344.480469.492187.160156.953125.402344 1.359375.71875.460938.277344.886719.597656 1.28125.960937 1.460938 1.535157 2.285156 3.5625 2.3125 5.679688.019531 2.128906-.816406 4.171875-2.320312 5.679688-.777344.703124-1.671876 1.273437-2.640626 1.679687-1.9375.851563-4.140624.851563-6.078124 0-.96875-.40625-1.863282-.972656-2.640626-1.679687-1.503906-1.503907-2.339843-3.550782-2.320312-5.679688.027344-2.117188.855469-4.148438 2.320312-5.679688zm0 32c1.890626-1.875 4.589844-2.683593 7.199219-2.160156.53125.074219 1.050781.238282 1.527344.480469.492187.160156.953125.402344 1.359375.71875.460938.277344.886719.597656 1.28125.960937 1.460938 1.535157 2.285156 3.5625 2.3125 5.679688-.011719 1.046875-.230469 2.078125-.640625 3.039062-.726563 2.011719-2.308594 3.59375-4.320313 4.320313-1.9375.851563-4.140624.851563-6.078124 0-.96875-.40625-1.863282-.972656-2.640626-1.679687-.703124-.777344-1.273437-1.671876-1.679687-2.640626-.449219-.949218-.667969-1.988281-.640625-3.039062.027344-2.117188.855469-4.148438 2.320312-5.679688zm0 32c1.890626-1.875 4.589844-2.683593 7.199219-2.160156.53125.074219 1.050781.238282 1.527344.480469.492187.160156.953125.402344 1.359375.71875.460938.277344.886719.597656 1.28125.960937 1.460938 1.535157 2.285156 3.5625 2.3125 5.679688.019531 2.128906-.816406 4.171875-2.320312 5.679688-.777344.703124-1.671876 1.273437-2.640626 1.679687-1.9375.851563-4.140624.851563-6.078124 0-.96875-.40625-1.863282-.972656-2.640626-1.679687-.703124-.777344-1.273437-1.671876-1.679687-2.640626-.449219-.949218-.667969-1.988281-.640625-3.039062.007812-2.121094.839844-4.160156 2.320312-5.679688zm0 32c1.890626-1.875 4.589844-2.683593 7.199219-2.160156.53125.074219 1.050781.238282 1.527344.480469.492187.160156.953125.402344 1.359375.71875.472656.320313.882812.640625 1.28125.960937 1.460938 1.535157 2.285156 3.5625 2.3125 5.679688-.039062 2.09375-.871094 4.09375-2.320312 5.601562-.753907.753907-1.652344 1.351563-2.640626 1.757813-1.949218.820313-4.148437.824219-6.101562.011719s-3.5-2.371094-4.296875-4.332032c-.449219-.949218-.667969-1.988281-.640625-3.039062.007812-2.121094.839844-4.160156 2.320312-5.679688zm0 32c2.289063-2.308593 5.746094-3 8.746094-1.753906 3.003906 1.246094 4.953125 4.183594 4.933594 7.433594.019531 2.128906-.816406 4.171875-2.320312 5.679688-.777344.703124-1.671876 1.273437-2.640626 1.679687-1.9375.851563-4.140624.851563-6.078124 0-.96875-.40625-1.863282-.972656-2.640626-1.679687-1.503906-1.503907-2.339843-3.550782-2.320312-5.679688.027344-2.117188.855469-4.148438 2.320312-5.679688zm-32-160c2.289063-2.308593 5.746094-3 8.746094-1.753906 3.003906 1.246094 4.953125 4.183594 4.933594 7.433594-.011719 1.046875-.230469 2.078125-.640625 3.039062-.40625.96875-.976563 1.863282-1.679687 2.640626-3.15625 3.09375-8.203126 3.09375-11.359376 0-.703124-.777344-1.273437-1.671876-1.679687-2.640626-.449219-.949218-.667969-1.988281-.640625-3.039062.027344-2.117188.855469-4.148438 2.320312-5.679688zm-1.679687 34.640626c.386719-.980469.957031-1.875 1.679687-2.640626 3.207032-2.960937 8.152344-2.960937 11.359376 0 .722656.765626 1.292968 1.660157 1.679687 2.640626.851563 1.9375.851563 4.140624 0 6.078124-.40625.96875-.976563 1.863282-1.679687 2.640626-3.15625 3.09375-8.203126 3.09375-11.359376 0-.703124-.777344-1.273437-1.671876-1.679687-2.640626-.855469-1.9375-.855469-4.140624 0-6.078124zm0 32c.386719-.980469.957031-1.875 1.679687-2.640626 3.207032-2.960937 8.152344-2.960937 11.359376 0 .722656.765626 1.292968 1.660157 1.679687 2.640626 1.277344 2.996093.609375 6.464843-1.6875 8.773437s-5.765625 2.996094-8.765625 1.738281c-3.003906-1.261718-4.945312-4.214844-4.90625-7.472656-.027344-1.050781.191406-2.089844.640625-3.039062zm0 32c.386719-.980469.957031-1.875 1.679687-2.640626 1.890626-1.875 4.589844-2.683593 7.199219-2.160156.53125.074219 1.050781.238282 1.527344.480469.492187.160156.953125.402344 1.359375.71875.460938.277344.886719.597656 1.28125.960937.722656.765626 1.292969 1.660157 1.679688 2.640626.855468 1.9375.855468 4.140624 0 6.078124-.40625.96875-.976563 1.863282-1.679688 2.640626-3.152344 3.09375-8.203125 3.09375-11.359375 0-.703125-.777344-1.273437-1.671876-1.679687-2.640626-.851563-1.9375-.851563-4.140624 0-6.078124zm1.679687 29.359374c1.890626-1.875 4.589844-2.683593 7.199219-2.160156.53125.074219 1.050781.238282 1.527344.480469.492187.160156.953125.402344 1.359375.71875.460938.277344.886719.597656 1.28125.960937 1.460938 1.535157 2.285156 3.5625 2.3125 5.679688 0 4.417969-3.582031 8-8 8s-8-3.582031-8-8c.027344-2.117188.855469-4.148438 2.320312-5.679688zm0 32c2.289063-2.308593 5.746094-3 8.746094-1.753906 3.003906 1.246094 4.953125 4.183594 4.933594 7.433594-.011719 1.046875-.230469 2.078125-.640625 3.039062-.40625.96875-.976563 1.863282-1.679687 2.640626-3.15625 3.09375-8.203126 3.09375-11.359376 0-.703124-.777344-1.273437-1.671876-1.679687-2.640626-.449219-.949218-.667969-1.988281-.640625-3.039062.027344-2.117188.855469-4.148438 2.320312-5.679688zm-33.679687-157.359374c.386719-.980469.957031-1.875 1.679687-2.640626.378907-.34375.777344-.664062 1.191407-.960937.449219-.300781.9375-.542969 1.449219-.71875.453124-.230469.9375-.394531 1.4375-.480469 2.636718-.523437 5.359374.285156 7.28125 2.160156.722656.765626 1.292968 1.660157 1.679687 2.640626.855469 1.9375.855469 4.140624 0 6.078124-.40625.96875-.976563 1.863282-1.679687 2.640626-2.699219 2.6875-6.921876 3.101562-10.089844.980468-3.167969-2.117187-4.402344-6.175781-2.949219-9.699218zm1.679687 29.359374c.378907-.34375.777344-.664062 1.191407-.960937.449219-.300781.9375-.542969 1.449219-.71875.453124-.230469.9375-.394531 1.4375-.480469 1.558593-.332031 3.183593-.164062 4.640624.480469 3.046876 1.152344 5.035157 4.101563 4.960938 7.359375-.011719 1.046875-.230469 2.078125-.640625 3.039062-.40625.96875-.976563 1.863282-1.679687 2.640626-2.289063 2.308593-5.746094 3-8.746094 1.753906-3.003906-1.246094-4.953125-4.183594-4.933594-7.433594.007812-2.121094.839844-4.160156 2.320312-5.679688zm-1.679687 34.640626c.386719-.980469.957031-1.875 1.679687-2.640626.378907-.34375.777344-.664062 1.191407-.960937.449219-.300781.9375-.542969 1.449219-.71875.453124-.230469.9375-.394531 1.4375-.480469 1.558593-.332031 3.183593-.164062 4.640624.480469.96875.40625 1.863282.976563 2.640626 1.679687.707031.777344 1.273437 1.671876 1.679687 2.640626.851563 1.9375.851563 4.140624 0 6.078124-.40625.96875-.976563 1.863282-1.679687 2.640626-2.699219 2.6875-6.921876 3.101562-10.089844.980468-3.167969-2.117187-4.402344-6.175781-2.949219-9.699218zm0 32c.40625-.96875.972656-1.863282 1.679687-2.640626.378907-.34375.777344-.664062 1.191407-.960937.449219-.300781.9375-.542969 1.449219-.71875.453124-.230469.9375-.394531 1.4375-.480469 2.636718-.523437 5.359374.285156 7.28125 2.160156.707031.777344 1.273437 1.671876 1.679687 2.640626.410156.960937.628906 1.992187.640625 3.039062.003906 2.125-.832031 4.164062-2.320312 5.679688-2.699219 2.6875-6.921876 3.101562-10.089844.980468-3.167969-2.117187-4.402344-6.175781-2.949219-9.699218zm1.679687 29.359374 1.191407-.960937c.449219-.300781.9375-.542969 1.449219-.71875.453124-.230469.9375-.394531 1.4375-.480469 2.636718-.523437 5.359374.285156 7.28125 2.160156 1.460937 1.53125 2.289062 3.5625 2.320312 5.679688-.011719 1.046875-.230469 2.078125-.640625 3.039062-.40625.96875-.976563 1.863282-1.679687 2.640626-3.15625 3.09375-8.203126 3.09375-11.359376 0-.703124-.777344-1.273437-1.671876-1.679687-2.640626-.410156-.960937-.628906-1.992187-.640625-3.039062.007812-2.121094.839844-4.160156 2.320312-5.679688zm0 32c.378907-.34375.777344-.664062 1.191407-.960937.449219-.300781.9375-.542969 1.449219-.71875.453124-.230469.9375-.394531 1.4375-.480469 1.558593-.332031 3.183593-.164062 4.640624.480469 3.046876 1.152344 5.035157 4.101563 4.960938 7.359375 0 4.417969-3.582031 8-8 8s-8-3.582031-8-8c.027344-2.117188.855469-4.148438 2.320312-5.679688zm-33.679687-157.359374c.40625-.96875.972656-1.863282 1.679687-2.640626 3.207032-2.960937 8.152344-2.960937 11.359376 0 .707031.777344 1.273437 1.671876 1.679687 2.640626.855469 1.9375.855469 4.140624 0 6.078124-.726563 2.011719-2.308594 3.59375-4.320313 4.320313-2.976562 1.277344-6.429687.609375-8.71875-1.679687-.703124-.777344-1.273437-1.671876-1.679687-2.640626-.851563-1.9375-.851563-4.140624 0-6.078124zm1.679687 29.359374c2.289063-2.308593 5.746094-3 8.746094-1.753906 3.003906 1.246094 4.953125 4.183594 4.933594 7.433594-.011719 1.046875-.230469 2.078125-.640625 3.039062-.726563 2.011719-2.308594 3.59375-4.320313 4.320313-2.976562 1.277344-6.429687.609375-8.71875-1.679687-.703124-.777344-1.273437-1.671876-1.679687-2.640626-.449219-.949218-.667969-1.988281-.640625-3.039062.027344-2.117188.855469-4.148438 2.320312-5.679688zm-1.679687 34.640626c.40625-.96875.972656-1.863282 1.679687-2.640626 3.207032-2.960937 8.152344-2.960937 11.359376 0 .707031.777344 1.273437 1.671876 1.679687 2.640626 1.277344 2.976562.609375 6.429687-1.679687 8.71875-.777344.703124-1.671876 1.273437-2.640626 1.679687-2.460937 1.054687-5.285156.796875-7.511718-.6875-2.226563-1.484375-3.554688-3.996094-3.527344-6.671875-.027344-1.050781.191406-2.089844.640625-3.039062zm1.679687 29.359374c2.289063-2.308593 5.746094-3 8.746094-1.753906 3.003906 1.246094 4.953125 4.183594 4.933594 7.433594.019531 2.128906-.816406 4.171875-2.320312 5.679688-.777344.703124-1.671876 1.273437-2.640626 1.679687-2.460937 1.054687-5.285156.796875-7.511718-.6875-2.226563-1.484375-3.554688-3.996094-3.527344-6.671875.027344-2.117188.855469-4.148438 2.320312-5.679688zm0 32c2.289063-2.308593 5.746094-3 8.746094-1.753906 3.003906 1.246094 4.953125 4.183594 4.933594 7.433594-.011719 1.046875-.230469 2.078125-.640625 3.039062-.726563 2.011719-2.308594 3.59375-4.320313 4.320313-2.976562 1.277344-6.429687.609375-8.71875-1.679687-.703124-.777344-1.273437-1.671876-1.679687-2.640626-.449219-.949218-.667969-1.988281-.640625-3.039062.027344-2.117188.855469-4.148438 2.320312-5.679688zm-1.679687 34.640626c.40625-.96875.972656-1.863282 1.679687-2.640626 3.207032-2.960937 8.152344-2.960937 11.359376 0 .707031.777344 1.273437 1.671876 1.679687 2.640626 1.277344 2.976562.609375 6.429687-1.679687 8.71875-.777344.703124-1.671876 1.273437-2.640626 1.679687-2.460937 1.054687-5.285156.796875-7.511718-.6875-2.226563-1.484375-3.554688-3.996094-3.527344-6.671875-.027344-1.050781.191406-2.089844.640625-3.039062zm-32-160c.386719-.980469.957031-1.875 1.679687-2.640626 1.890626-1.875 4.589844-2.683593 7.199219-2.160156.53125.074219 1.050781.238282 1.527344.480469.511719.175781.996094.417969 1.441406.71875.417969.296875.816407.617187 1.199219.960937 1.460938 1.535157 2.285156 3.5625 2.3125 5.679688.039062 3.257812-1.902344 6.210938-4.90625 7.472656-3 1.257813-6.46875.570313-8.765625-1.738281s-2.964844-5.777344-1.6875-8.773437zm0 32c.40625-.96875.972656-1.863282 1.679687-2.640626 1.910157-1.84375 4.589844-2.648437 7.199219-2.160156.53125.074219 1.050781.238282 1.527344.480469.511719.175781.996094.417969 1.441406.71875l1.199219.960937c1.460938 1.535157 2.285156 3.5625 2.3125 5.679688.039062 3.257812-1.902344 6.210938-4.90625 7.472656-3 1.257813-6.46875.570313-8.765625-1.738281s-2.964844-5.777344-1.6875-8.773437zm1.679687 29.359374c1.890626-1.875 4.589844-2.683593 7.199219-2.160156.53125.074219 1.050781.238282 1.527344.480469.511719.175781.996094.417969 1.441406.71875.417969.296875.816407.617187 1.199219.960937 1.460938 1.535157 2.285156 3.5625 2.3125 5.679688 0 4.417969-3.582031 8-8 8s-8-3.582031-8-8c.007812-2.121094.839844-4.160156 2.320312-5.679688zm-1.679687 34.640626c1.359375-3.578126 5.132813-5.621094 8.871094-4.800782.53125.074219 1.050781.238282 1.527343.480469.511719.175781.996094.417969 1.441407.71875.417969.296875.816406.617187 1.199219.960937 1.460937 1.53125 2.289062 3.5625 2.320312 5.679688.039062 3.257812-1.902344 6.210938-4.90625 7.472656-3 1.257813-6.46875.570313-8.765625-1.738281s-2.964844-5.777344-1.6875-8.773437zm0 32c.40625-.96875.972656-1.863282 1.679687-2.640626 1.890626-1.875 4.589844-2.683593 7.199219-2.160156.53125.074219 1.050781.238282 1.527344.480469.511719.175781.996094.417969 1.441406.71875.417969.296875.816407.617187 1.199219.960937.707031.777344 1.273438 1.671876 1.679688 2.640626 1.425781 3.347656.414062 7.238281-2.46875 9.464843-2.878907 2.226563-6.902344 2.226563-9.78125 0-2.882813-2.226562-3.894532-6.117187-2.46875-9.464843zm1.679687 29.359374c1.890626-1.875 4.589844-2.683593 7.199219-2.160156.53125.074219 1.050781.238282 1.527344.480469.511719.175781.996094.417969 1.441406.71875.417969.296875.816407.617187 1.199219.960937 1.460938 1.535157 2.285156 3.5625 2.3125 5.679688 0 4.417969-3.582031 8-8 8s-8-3.582031-8-8c.007812-2.121094.839844-4.160156 2.320312-5.679688zm0 0"/></svg>